<svg width="28" height="28" viewBox="0 0 28 28" fill="none" xmlns="http://www.w3.org/2000/svg">
<g clip-path="url(#clip0_1443_2136)">
<path fill-rule="evenodd" clip-rule="evenodd" d="M27.5001 14.3072C27.5012 13.381 27.4174 12.4565 27.2496 11.5449H14.272V16.7669H21.6861C21.5322 17.592 21.2093 18.378 20.7369 19.0775C20.2645 19.777 19.6524 20.3754 18.9374 20.8366V24.2246H23.3888C25.9934 21.8744 27.4962 18.4126 27.4962 14.3047L27.5001 14.3072Z" fill="#3E82F1"/>
<path fill-rule="evenodd" clip-rule="evenodd" d="M14.2759 27.4993C17.9953 27.4993 21.1139 26.2911 23.3927 24.2295L18.9414 20.8415C17.7072 21.6516 16.1291 22.1311 14.2759 22.1311C10.6876 22.1311 7.65085 19.7554 6.56851 16.5645H1.96533V20.0631C3.11201 22.2993 4.87057 24.1789 7.04453 25.4921C9.21848 26.8053 11.7222 27.5002 14.2759 27.4993Z" fill="#32A753"/>
<path fill-rule="evenodd" clip-rule="evenodd" d="M6.56827 16.5633C5.99206 14.9003 5.99206 13.0973 6.56827 11.4342V7.93555H1.96509C1.00168 9.81728 0.5 11.8935 0.5 13.9988C0.5 16.1041 1.00168 18.1803 1.96509 20.062L6.56827 16.5633Z" fill="#F9BB00"/>
<path fill-rule="evenodd" clip-rule="evenodd" d="M14.2758 5.8682C16.299 5.8682 18.1146 6.54988 19.5421 7.8878L23.4925 4.01522C21.1072 1.83665 17.9887 0.500001 14.2784 0.500001C11.7246 0.49907 9.22092 1.194 7.04697 2.50716C4.87302 3.82032 3.11446 5.69998 1.96777 7.93612L6.57095 11.4348C7.65329 8.2439 10.6901 5.8682 14.2784 5.8682H14.2758Z" fill="#E74133"/>
</g>
<defs>
<clipPath id="clip0_1443_2136">
<rect width="27" height="27" fill="white" transform="translate(0.5 0.5)"/>
</clipPath>
</defs>
</svg>
