<svg width="23" height="21" viewBox="0 0 23 21" fill="none" xmlns="http://www.w3.org/2000/svg">
<path fill-rule="evenodd" clip-rule="evenodd" d="M10.6664 2.8C10.6664 0.466667 11.1513 0 12.121 0C13.0907 0 15.2725 0.933333 15.2725 3.73333C15.2725 6.06667 14.5453 7.46667 14.5453 7.46667H19.1223C21.5271 7.46667 23.3502 9.548 22.9429 11.8347L21.8568 17.9013C21.5368 19.6933 19.9271 21 18.0362 21H16.4847C11.6604 21 8.5525 19.9752 7 19.2836V7.72147C8.43516 6.80213 10.6664 5.0176 10.6664 2.8ZM4.25 21H1.75C0.785 21 0 20.2673 0 19.3667V8.63333C0 7.73267 0.785 7 1.75 7H4.25C5.215 7 6 7.73267 6 8.63333V19.3667C6 20.2673 5.215 21 4.25 21Z" fill="white"/>
</svg>
