<svg width="21" height="21" viewBox="0 0 21 21" fill="none" xmlns="http://www.w3.org/2000/svg">
<path fill-rule="evenodd" clip-rule="evenodd" d="M13 1C13 0.447715 13.4477 0 14 0H20C20.5523 0 21 0.447715 21 1V7C21 7.55228 20.5523 8 20 8C19.4477 8 19 7.55228 19 7V3.41421L7.70711 14.7071C7.31658 15.0976 6.68342 15.0976 6.29289 14.7071C5.90237 14.3166 5.90237 13.6834 6.29289 13.2929L17.5858 2H14C13.4477 2 13 1.55228 13 1ZM3.13333 5C2.83275 5 2.54449 5.1194 2.33195 5.33195C2.1194 5.54449 2 5.83275 2 6.13333V17.8667C2 18.1672 2.1194 18.4555 2.33195 18.6681C2.54449 18.8806 2.83276 19 3.13333 19H14.8667C15.1672 19 15.4555 18.8806 15.6681 18.6681C15.8806 18.4555 16 18.1672 16 17.8667V11.4667C16 10.9144 16.4477 10.4667 17 10.4667C17.5523 10.4667 18 10.9144 18 11.4667V17.8667C18 18.6977 17.6699 19.4947 17.0823 20.0823C16.4947 20.6699 15.6977 21 14.8667 21H3.13333C2.30232 21 1.50535 20.6699 0.917732 20.0823C0.330118 19.4947 0 18.6977 0 17.8667V6.13333C0 5.30232 0.330118 4.50535 0.917732 3.91773C1.50535 3.33012 2.30232 3 3.13333 3H9.53333C10.0856 3 10.5333 3.44772 10.5333 4C10.5333 4.55228 10.0856 5 9.53333 5H3.13333Z" fill="#ABABAB"/>
</svg>
